<?xml version="1.0" encoding="UTF-8" standalone="no"?>
<!-- Generator: Adobe Illustrator 17.0.0, SVG Export Plug-In . SVG Version: 6.00 Build 0)  -->

<svg
   xmlns:dc="http://purl.org/dc/elements/1.1/"
   xmlns:cc="http://creativecommons.org/ns#"
   xmlns:rdf="http://www.w3.org/1999/02/22-rdf-syntax-ns#"
   xmlns:svg="http://www.w3.org/2000/svg"
   xmlns="http://www.w3.org/2000/svg"
   xmlns:sodipodi="http://sodipodi.sourceforge.net/DTD/sodipodi-0.dtd"
   xmlns:inkscape="http://www.inkscape.org/namespaces/inkscape"
   version="1.1"
   id="Слой_1"
   x="0px"
   y="0px"
   width="19.2px"
   height="13.2px"
   viewBox="0 0 19.2 13.2"
   enable-background="new 0 0 19.2 13.2"
   xml:space="preserve"
   inkscape:version="0.91 r13725"
   sodipodi:docname="ArrowLeft.svg"><metadata
     id="metadata11"><rdf:RDF><cc:Work
         rdf:about=""><dc:format>image/svg+xml</dc:format><dc:type
           rdf:resource="http://purl.org/dc/dcmitype/StillImage" /><dc:title /></cc:Work></rdf:RDF></metadata><defs
     id="defs9" /><sodipodi:namedview
     pagecolor="#ffffff"
     bordercolor="#666666"
     borderopacity="1"
     objecttolerance="10"
     gridtolerance="10"
     guidetolerance="10"
     inkscape:pageopacity="0"
     inkscape:pageshadow="2"
     inkscape:window-width="659"
     inkscape:window-height="480"
     id="namedview7"
     showgrid="false"
     inkscape:zoom="17.878788"
     inkscape:cx="1.2661021"
     inkscape:cy="6.5999998"
     inkscape:window-x="214"
     inkscape:window-y="21"
     inkscape:window-maximized="0"
     inkscape:current-layer="Слой_1" /><g
     id="g3"
     style="fill:#ffffff;fill-opacity:1"
     transform="matrix(-1,0,0,1,19.2,0)"><path
       d="M 18.9,6 13.2,0.3 C 12.9,0 12.3,0 11.9,0.3 c -0.3,0.3 -0.3,0.9 0,1.3 l 4.2,4.2 -15.2,0 C 0.4,5.7 0,6.1 0,6.6 0,7.1 0.4,7.5 0.9,7.5 l 15.2,0 -4.1,4.2 c -0.3,0.3 -0.3,0.9 0,1.3 0.2,0.2 0.4,0.3 0.6,0.3 0.2,0 0.5,-0.1 0.6,-0.3 l 5.7,-5.7 c 0.4,-0.4 0.4,-1 0,-1.3 z"
       id="path5"
       style="fill:#ffffff;fill-opacity:1"
       inkscape:connector-curvature="0" /></g></svg>